<?xml version="1.0" encoding="utf-8"?>
<!-- Generator: Adobe Illustrator 22.0.1, SVG Export Plug-In . SVG Version: 6.00 Build 0)  -->
<svg version="1.1" id="Layer_1" xmlns="http://www.w3.org/2000/svg" xmlns:xlink="http://www.w3.org/1999/xlink" x="0px" y="0px"
	 viewBox="0 0 120 34" style="enable-background:new 0 0 120 34;" xml:space="preserve">
<style type="text/css">
	.st0{fill:#4ECDC4;}
	.st1{fill:none;stroke:#4ECDC4;stroke-miterlimit:10;}
</style>
<g>
	<path class="st0" d="M17.7,23.9V10.1h4.7c1.1,0,2.1,0.2,2.9,0.5c0.8,0.4,1.5,0.9,2.1,1.5c0.6,0.6,1,1.4,1.2,2.2
		c0.3,0.8,0.4,1.7,0.4,2.7c0,1.1-0.2,2-0.5,2.9c-0.3,0.9-0.8,1.6-1.3,2.2c-0.6,0.6-1.3,1.1-2.1,1.4c-0.8,0.3-1.7,0.5-2.7,0.5H17.7z
		 M27.7,17c0-0.8-0.1-1.6-0.4-2.3c-0.2-0.7-0.6-1.3-1-1.8c-0.4-0.5-1-0.9-1.6-1.2c-0.7-0.3-1.4-0.4-2.2-0.4h-3.3v11.4h3.3
		c0.9,0,1.6-0.1,2.3-0.4c0.7-0.3,1.2-0.7,1.6-1.2c0.4-0.5,0.8-1.1,1-1.8C27.6,18.6,27.7,17.8,27.7,17z"/>
	<path class="st0" d="M38.8,24c-1,0-1.8-0.2-2.6-0.6c-0.8-0.4-1.5-0.9-2.1-1.6c-0.6-0.7-1-1.4-1.3-2.3c-0.3-0.8-0.5-1.7-0.5-2.6
		c0-0.9,0.2-1.8,0.5-2.7c0.3-0.8,0.8-1.6,1.4-2.2c0.6-0.7,1.3-1.2,2.1-1.6c0.8-0.4,1.7-0.6,2.6-0.6c1,0,1.8,0.2,2.6,0.6
		c0.8,0.4,1.5,0.9,2,1.6c0.6,0.7,1,1.4,1.3,2.3c0.3,0.8,0.5,1.7,0.5,2.6c0,0.9-0.2,1.8-0.5,2.7c-0.3,0.8-0.8,1.6-1.4,2.2
		s-1.3,1.2-2.1,1.5C40.6,23.8,39.8,24,38.8,24z M33.7,17c0,0.8,0.1,1.5,0.4,2.2c0.2,0.7,0.6,1.3,1.1,1.9c0.5,0.5,1,1,1.6,1.3
		c0.6,0.3,1.3,0.5,2.1,0.5c0.8,0,1.5-0.2,2.1-0.5c0.6-0.3,1.2-0.8,1.6-1.3c0.4-0.5,0.8-1.2,1-1.9c0.2-0.7,0.4-1.4,0.4-2.1
		c0-0.8-0.1-1.5-0.4-2.2c-0.3-0.7-0.6-1.3-1.1-1.8c-0.5-0.5-1-1-1.6-1.3c-0.6-0.3-1.3-0.5-2.1-0.5c-0.8,0-1.5,0.2-2.1,0.5
		c-0.6,0.3-1.2,0.8-1.6,1.3c-0.4,0.5-0.8,1.2-1,1.9C33.8,15.6,33.7,16.3,33.7,17z"/>
	<path class="st0" d="M50.8,12.6v11.3h-1.4V10.1h1.1l9.2,11.5V10.1h1.4v13.8h-1.2L50.8,12.6z"/>
	<path class="st0" d="M70.4,10.1h1.2l5.8,13.9h-1.4l-1.8-4.3h-6.2l-1.8,4.3h-1.5L70.4,10.1z M73.7,18.5L71,11.7l-2.8,6.8H73.7z"/>
	<path class="st0" d="M89.3,11.3h-4.9v12.6H83V11.3h-4.9v-1.2h11.2V11.3z"/>
	<path class="st0" d="M102.3,22.7v1.2h-9.3V10.1h9.1v1.2h-7.8v5h6.8v1.2h-6.8v5.3H102.3z"/>
</g>
<rect x="1" y="1" class="st1" width="118" height="32"/>
</svg>
