<svg id="logoHorz" xmlns="http://www.w3.org/2000/svg" viewBox="0 0 476.1 40">
	<path class="st0" d="M38.3 20.7s-1.2 3.4-1.2 7.2c0 1.8.3 3.7 1.2 5.4-4.1 1.2-8.2 5.2-8.9 6.8H13.8c-.2 0-1.4-2.4-2.1-2.6-.7 0-2.1 2.6-2.1 2.6H.3c.5-1.7.7-3.4.7-5.1 0-3.1-.5-5.8-.5-5.8s1.8.4 4.6.4c1.8 0 4.2-.1 6.5-.7v.3c0 1.6 2.2 3.1 6.7 3.1s8-.8 8-2.7c0-3.5-5.8-5.6-8.1-5.6-3.5 0-7.5 1-9.2 2.4-3-5.4-9-5.5-9-5.5.8-1.7 1-3.9 1-6.1 0-3.3-.7-6.4-1-7.3C6.7 5.1 9.3.2 9.3.2h11s1.7 2.2 2.5 2.4c.5-.1 2-2.4 2-2.4H35s-.8 2.2-.8 6.4c0 1.7.1 3.8.4 6.1-1.4-1-3.7-1.4-5.6-1.4-2.9 0-5.8.8-5.9.8-.1-.1-.1-.2-.1-.5v-.9c0-1.2-.3-2.9-2.7-2.9h-1.7C14.5 7.8 12 9 12 10.5s1.3 5.2 6.7 5.2h1.6c4.6-.3 7.1-1.4 7.5-1.8.8 1.5 5 4.5 10.5 6.8zM81.2 0C80.4 1.3 80 4.8 80 8.6c0 3 .3 6.1.8 8.1h-.4c-1.7-.3-3.3-.4-4.7-.4-2.5 0-4.4.3-6.8.8.8-1.4.8-3.4.8-3.9 0-2.9-1.7-5-5.6-5.1h-.3c-4.8 0-5.2 5.1-5.2 6.9v.7H60c1.4 0 4.1-.1 6.7-.7-.3.5-.5 3-.5 5.5 0 1.8.1 3.7.5 5 0 0-5.2-.9-7.1-.9h-.5c0 .3-.1.7-.1 1 0 2.6 1.4 6.4 5.5 6.4h.5c3.4-.4 5.2-2.5 5.2-5.2 0-1.2-.4-2.4-1.3-3.7 0 0 2.1.3 4.6.3 2.9 0 6.5 0 8.8-.5-.4 1.3-1.4 4.8-1.4 9.3 0 2.4.3 5.1 1.2 7.7H41c.4-.7.8-3.5.8-6.1 0-1-.1-2-.3-2.7 0 0 .7.8 1.7.8 2.7-.1 3.3-7.3 3.3-10.2 0-5.4 0-13.9-3.7-13.9-.5 0-1.2.3-2 .7.1-.9.4-2.5.4-4.1s0-3.2-.5-4.4h40.5zM127.5 0c-.8 1.3-1.2 4.8-1.2 8.6 0 3 .3 6.1.8 8.1h-.4c-1.7-.3-3.3-.4-4.7-.4-2.5 0-4.4.3-6.8.8.8-1.4.8-3.4.8-3.9 0-2.9-1.7-5-5.6-5.1h-.3c-4.8 0-5.2 5.1-5.2 6.9v.7h1.4c1.4 0 4.1-.1 6.7-.7-.3.5-.5 3-.5 5.5 0 1.8.1 3.7.5 5 0 0-5.2-.9-7.1-.9h-.5c0 .3-.1.7-.1 1 0 2.6 1.4 6.4 5.5 6.4h.4c3.4-.4 5.2-2.5 5.2-5.2 0-1.2-.4-2.4-1.3-3.7 0 0 2.1.3 4.6.3 2.9 0 6.5 0 8.8-.5-.4 1.3-1.4 4.8-1.4 9.3 0 2.4.3 5.1 1.2 7.7H87.2c.4-.7.8-3.5.8-6.1 0-1-.1-2-.3-2.7 0 0 .7.8 1.7.8 2.7-.1 3.3-7.3 3.3-10.2 0-5.4 0-13.9-3.7-13.9-.5 0-1.2.3-2 .7.1-.9.4-2.5.4-4.1s-.1-3.2-.6-4.4h40.7zM140.8 0h24.4s2.9 6 10.6 8.9l-.1.5c-.9 3.1-1.8 6.5-1.8 11.1 0 3.1.4 6.8 1.6 11.4-3.5 1.6-7.5 3.7-9.3 8h-33.7c.3-1.2.8-4.1.8-6.4 0-.9 0-1.7-.3-2.2 0 0 1.4.8 2.2.8 1.2 0 3.1-2.5 3.1-11v-.3c-.1-9.8-1.2-12.7-2.5-12.7h-.5c-1.4 0-2.5.7-2.5.7s.1-1.6.1-3.7c0-1.7-.1-3.7-.5-5.1h8.4zm9.5 19.9c0 9.9 1.8 12.3 5.4 12.3 3.4 0 5.6-4.7 5.6-11.4v-.9c-.3-6.7-2.5-12.2-6.1-12.2-3.4 0-4.8 3.4-4.8 11.8v.4zM233.4 20.7c.5 0 .6.2.6.2 0 .3-.5.6-.9.6-2.1.3-5.7 2.1-7.4 5.3-.9 1.7-1.2 4.2-1.5 4.2-.2 0-.9-.6-.9-2.6-.2-5.8 8.6-7.7 10.1-7.7zm-10.1-7c.2 0 .3 0 .5.2 1.1 2 3.5 4.5 5.9 4.7.5 0 1.2.2 1.2.2 0 .8-2.1 1.4-3.5 1.4-2.9 0-4.1-3.6-4.1-5.6v-.9zm3.6-1.5c-.2 0-.3-.2-.3-.5 0-1.2 7-9.7 23.9-9.7 19.2 0 26.1 7.7 35.4 7.7 1.4 0 2.7-.8 3.2-.8.2 0 .2.2.2.3 0 2.3-2.7 3-4.7 3-7.1 0-16.9-7.9-34.5-7.9-9.8.2-14.7 2.3-23.2 7.9zm1.5 17.2c0-2.7 2-5 3.3-5l.2.2c0 .3-2 1.8-2 5.1 0 1.8 1.1 3.9 1.1 4.5 0 .2 0 .2-.2.2-.4.2-2.4-3-2.4-5zm21.3 1.9c9.5 0 19 6.2 25.5 6.2.9 0 2.7-.2 3.2-.2.2 0 .3 0 .3.2 0 .9-2.6 2-5.4 2-5.7 0-16.9-5.4-25.1-5.4-11.2 0-15 3.5-16 3.5-.2 0-.3-.2-.3-.5 0-1.3 5.9-5.8 17.8-5.8zm-5.3-2.6c-4.5-.3-7.4-5-7.4-9.8v-.8c.5-6 3.5-10.3 8.6-10.3h.6c5 .3 7.6 4.8 7.6 9.8v1.1c-.5 5.3-2.9 9.8-8.5 9.8h-.9v.2zm-3.1-9.1c0 3 .6 7.3 3.5 7.4h.3c3.3 0 4.1-4.2 4.4-7.6 0-1.1.2-2.3.2-3.3 0-3.2-.6-6-3.5-6.2h-.3c-3.3 0-4.2 3.9-4.4 7.6-.2.3-.2 1.2-.2 2.1zm12.2 6.8c.3 0 .9.2 1.5.2s1.1-.2 1.4-.6l.2-.5 3-12.5c0-1.1-.5-1.4-.8-1.7-.3-.2-1.1-.3-1.4-.3l.3-1.7s8 .5 16.5 3.9l-1.5 6.3-2-.5c.2-.6.3-1.4.3-2 0-2.7-2.4-4.7-5.3-4.7-.6 0-1.1.2-1.4.6 0 .2-.2.2-.2.3l-1.2 4.8c.5.2.9.2 1.4.2.9 0 1.8-.3 2.1-.8.5-.6.3-.9.5-1.2l1.5.5-1.7 7.6-1.5-.5v-1.2c0-.8-.2-1.5-1.2-2.3-.5-.2-1.1-.5-1.4-.5h-.2s-.9 3.8-1.4 5.7v.5c0 .8.9 1.5 1.4 1.8.5.3 1.4.6 1.5.8l-.5 1.5s-4.8-2.1-10.6-2.6l.7-1.1zm23 5.3c0-3.5-1.5-3.9-1.5-5.1.9 0 3.8 1.8 3.8 4.2s-.9 3.5-2.9 4.2c0-1 .6-2.1.6-3.3zm4.5-6.2c2.6 0 4.8-.8 6.8-2.4 0 0 .2 0 .2.2-.8 2.9-3.5 3.9-5.7 3.9-2.9 0-6.3-2.1-6.3-2.7.9 0 3 1 5 1zm.1-10c.2 0 1.1 1.2 1.1 2.7 0 2.4-1.5 3.9-3.8 3.9-.6 0-2.4-.2-2.4-.5 5-1.5 4.4-6.1 5.1-6.1zM217.4 20.5s-1.2 3.4-1.2 7.2c0 1.8.3 3.7 1.2 5.4-4.1 1.2-8.2 5.2-8.9 6.8h-15.6c-.1 0-1.4-2.4-2.1-2.6-.7 0-2.1 2.6-2.1 2.6h-9.4c.5-1.7.8-3.3.8-5 0-3.1-.5-5.8-.5-5.8s1.8.4 4.6.4c1.8 0 4.2-.1 6.5-.7v.3c0 1.6 2.2 3.1 6.7 3.1 4.4 0 8-.8 8-2.7 0-3.5-5.8-5.6-8.1-5.6-3.5 0-7.5 1-9.2 2.4-3-5.1-8.9-5.4-8.9-5.4.8-1.7 1-3.9 1-6.1 0-3.3-.7-6.4-1-7.3 6.7-2.4 9.3-7.3 9.3-7.3h11s1.7 2.2 2.5 2.4c.5-.1 2-2.4 2-2.4h10.3s-.8 2.2-.8 6.4c0 1.7.1 3.8.4 6.1-1.4-1-3.7-1.4-5.6-1.4-2.9 0-5.8.8-5.9.8s-.1-.1-.1-.4v-.9c0-1.2-.3-2.9-2.7-2.9h-1.7c-4.1 0-6.5 1.2-6.5 2.6s1.3 5.2 6.7 5.2h1.6c4.6-.3 7.1-1.4 7.5-1.8.5 1.4 4.8 4.4 10.2 6.6zM377.1.4c2.9 5.1 6.5 7.9 10 8.6-1.1 3-2 7.7-2 12.7 0 3.6.5 7.1 1.8 10-5.1 1.7-8.8 5-9.4 8.2h-20.9c-4.2-6.3-10-8.5-10-8.5 1.5-3.5 2.3-7.6 2.3-11.8 0-3.8-.8-7.6-2.1-10.4 5.6-2.4 8-5 10.3-8.8h20zM367 32.6c3.5 0 5.6-5.3 5.6-11.9s-1.7-12.5-5.3-12.5c-4.2 0-5.6 6-5.6 12.5s1.3 11.9 5.3 11.9zM343.4.4s-1.1 2.6-1.1 5.1c0 1.1.2 2.3.6 3.3 0 0-2-.6-3-.6-2.9 0-2.9 6.8-2.9 8.9v.5c0 6 .9 12.2 1.7 13.1.6.6 1.2.9 1.8.9.9 0 1.7-.5 2.3-.8-.3.5-.5 3-.5 4.4 0 1.5.3 3 .8 4.4H321c.5-1.2.6-3.5.6-5.4 0-1.4-.2-2.3-.5-3.2.9.5 1.7.6 2.4.6 1.8 0 2.3-1.7 2.3-7.7v-.5h-12.7c.2 3.3.6 5.9 1.5 7.1.6.8.9 1.1 2 1.1.6 0 1.2-.2 1.7-.6-.6 1.1-.8 2.4-.8 3.6 0 1.7.5 3.5.8 4.7h-23.1c.5-1.1.8-3.3.8-5.3 0-1.4-.2-2.6-.5-3.5 0 0 1.1.6 2.1.6h.3c.9-.2 2.9-1.5 2.9-10.1s-.8-13.2-2.7-13.5h-.6c-1.5 0-1.8.6-2.3.9.2-.6.3-1.7.3-2.9 0-2-.3-4.2-.6-5.4h23c0 .2-.8 2-.8 4.5 0 1.1.2 2.3.6 3.3 0 0-1.2-.2-2.3-.2-.8 0-1.8.3-2.4 1.2-.9 1.5-.2 3.8-.2 6.6H325c-.3-5.3.3-7.7-2.1-7.7-.6 0-1.5 0-2.4.3.2-.6.6-1.4.6-2.6 0-2-.5-4.2-.8-5.3h23.1zM424.4.4s3.2 4.7 8.8 7.4c-.3.8-1.4 3-1.4 5.4 0 1.5.5 3 1.7 4.2-4.5 1.2-8.3 6.8-8.2 7.4-5.4-.9-9.7-1.1-12.4-1.1-2.9 0-4.2.2-4.2.2v.6c0 3 .2 7.3 3.5 7.3 1.2 0 2.3-.9 2.3-.9s-.6 3.6-.6 6.6c0 .9 0 1.7.2 2.3h-23.9c.5-.9.8-3.2.8-5.6 0-1.4-.2-2.6-.3-3.5.6.6 1.4 1.1 2.1 1.1h.5c2-.3 3.2-4.7 3.2-10.9 0-3-.2-12.1-2.6-12.5h-.6c-1.5 0-2.3 1.2-2.3 1.5.3-1.5.5-2.9.5-4.2 0-3.3-.8-5.1-.8-5.1h33.8V.4zm-15.7 15.4c0 .2.2.3.6.3 1.1 0 3.2-.5 5-.6 2.7-.6 4.4-2 4.4-4.1V11c-.3-2-1.8-3.3-4.4-3.3h-.8c-3.9.5-5 4.4-5 7.3v.9h.2zM475.1.4c-.8 1.4-1.2 4.8-1.2 8.5 0 3 .3 6 .8 8h-.3c-1.7-.2-3.2-.5-4.7-.5-2.4 0-4.4.2-6.6.8.8-1.4.8-3.3.8-3.8 0-2.9-1.7-4.8-5.4-5h-.3c-4.7 0-5.1 5-5.1 6.8v.6h1.4c1.5 0 3.9-.2 6.6-.6-.2.5-.5 2.9-.5 5.4 0 1.8.2 3.6.5 4.8 0 0-5.1-.9-7-.9h-.6c0 .3-.2.6-.2 1.1 0 2.6 1.5 6.3 5.4 6.3h.5c3.3-.5 5.1-2.4 5.1-5.1 0-1.2-.5-2.4-1.2-3.6 0 0 2.1.3 4.5.3 2.9 0 6.5 0 8.6-.5-.5 1.2-1.4 4.8-1.4 9.2 0 2.4.3 5 1.2 7.6h-40.5c.3-.6.8-3.5.8-6 0-1.1-.2-2-.3-2.7 0 0 .6.8 1.7.8 2.7-.2 3.2-7.3 3.2-10 0-5.3 0-13.6-3.6-13.6-.6 0-1.2.2-2 .6.2-.9.3-2.4.3-4.1 0-1.5-.2-3.2-.6-4.2h40.2V.4z"/>
</svg>
